<svg width="72" height="72" viewBox="0 0 72 72" fill="none" xmlns="http://www.w3.org/2000/svg">
<path d="M36.7207 18.999C24.991 18.999 11.5856 29.9546 6 35.4324C11.027 41.2879 24.6559 52.999 36.7207 52.999C48.7856 52.999 62.6006 41.2879 68 35.4324C62.042 29.9546 48.4505 18.999 36.7207 18.999Z" stroke="#FFE143" stroke-width="1.89189"/>
<path d="M22.6167 58.1174C17.2123 58.1174 11.8078 52.713 11.8078 47.3086C11.8078 52.713 6.40344 58.1174 0.999023 58.1174C6.40344 58.1174 11.8078 62.8463 11.8078 68.9262C11.8078 62.8463 17.2123 58.1174 22.6167 58.1174Z" stroke="#FFE143" stroke-width="1.89189"/>
<path d="M71.0005 14.883C65.596 14.883 60.1916 9.47863 60.1916 4.07422C60.1916 9.47863 54.7872 14.883 49.3828 14.883C54.7872 14.883 60.1916 19.6119 60.1916 25.6919C60.1916 19.6119 65.596 14.883 71.0005 14.883Z" stroke="#FFE143" stroke-width="1.89189"/>
<circle cx="36.999" cy="36" r="17.0541" stroke="#FFE143" stroke-width="1.89189"/>
<path d="M39.001 25.499C38.0473 25.2293 38.041 24.999 37.001 24.999C30.9258 24.999 26.001 29.9239 26.001 35.999C26.001 42.0742 30.9258 46.999 37.001 46.999C43.0761 46.999 48.001 42.0742 48.001 35.999C48.001 35.1391 47.9023 34.3022 47.7156 33.499" stroke="#FFE143" stroke-width="1.89189"/>
<circle cx="44.499" cy="28.5" r="6.55405" stroke="#FFE143" stroke-width="1.89189"/>
</svg>
