<svg width="80" height="80" viewBox="0 0 80 80" fill="none" xmlns="http://www.w3.org/2000/svg">
<path d="M63.4016 72.8635C51.8524 72.8973 40.2863 72.8973 28.737 72.8635C28.1292 72.6778 27.4876 72.5765 26.9472 72.2219C25.4783 71.2932 25.0393 69.9256 25.2419 68.2709C25.3938 67.4773 25.6471 66.7343 26.0523 66.0421C30.8645 57.6334 35.6767 49.2248 40.472 40.7992C41.502 38.9926 42.5319 37.169 43.545 35.3623C44.423 33.8427 45.2842 32.3399 46.1622 30.8203C46.1959 30.8203 46.2297 30.8372 46.2635 30.8372C47.1077 32.3906 47.9688 33.9271 48.8806 35.4468C48.9482 35.5987 49.0326 35.7507 49.1001 35.9026C54.7228 45.7465 60.3454 55.5904 65.9681 65.4173C66.5084 66.346 67.0318 67.2747 67.2513 68.3553C67.2513 68.4397 67.2513 68.541 67.2513 68.6254C67.3189 70.4828 66.424 71.8504 64.6848 72.509C64.2627 72.6609 63.8237 72.7453 63.4016 72.8635ZM30.1216 68.2371C40.8434 68.2371 51.4978 68.2371 62.2196 68.2371C56.8503 58.866 51.5315 49.5287 46.1622 40.1576C40.7928 49.5625 35.4572 58.8829 30.1216 68.2371Z" fill="#2C4559"/>
<path d="M25.2246 68.271C25.022 69.9257 25.4779 71.2933 26.93 72.222C27.4872 72.5766 28.1119 72.6948 28.7198 72.8636C28.5341 72.8636 28.3483 72.8805 28.1626 72.8805C21.0541 72.8805 13.9625 72.8805 6.85395 72.8805C6.06037 72.8805 5.28366 72.8299 4.54073 72.5766C2.59898 71.8843 1.63654 69.9932 2.1262 67.8488C2.27817 67.2072 2.53144 66.5994 2.85225 66.0084C10.3322 52.7369 17.8291 39.4486 25.3091 26.1771C27.082 23.0534 28.838 19.9128 30.6109 16.7891C30.9148 16.2319 31.2525 15.7085 31.7084 15.2526C33.2956 13.6317 35.5075 13.581 37.1791 15.1175C37.9051 15.7929 38.3779 16.6372 38.8507 17.4814C41.1808 21.7195 43.5278 25.9576 45.8579 30.1957C45.9761 30.3983 46.1112 30.584 46.1449 30.8204C45.2669 32.3401 44.4058 33.8428 43.5278 35.3624C43.4603 35.2611 43.3927 35.1598 43.3421 35.0416C40.5223 29.9593 37.6856 24.8601 34.8659 19.7609C34.7815 19.6089 34.7308 19.4232 34.5282 19.305C34.4606 19.3894 34.3931 19.4738 34.3424 19.5582C31.9786 23.7457 29.6147 27.9331 27.2677 32.1374C22.2529 41.0357 17.255 49.9172 12.2402 58.7986C10.5517 61.7872 8.88013 64.7758 7.19165 67.7475C6.92149 68.2372 6.92149 68.2372 7.49558 68.2372C7.58 68.2372 7.68131 68.2372 7.76574 68.2372C13.6079 68.271 19.4163 68.271 25.2246 68.271Z" fill="#01BD87"/>
<path d="M63.4014 72.8636C63.8235 72.7454 64.2625 72.6441 64.6677 72.4922C66.4069 71.8336 67.3018 70.466 67.2342 68.6086C67.2342 68.5242 67.2342 68.4229 67.2342 68.3385C69.6656 68.3385 72.097 68.3385 74.5116 68.3385C75.0012 68.3385 75.035 68.2709 74.7986 67.8488C73.9375 66.2954 73.0595 64.742 72.1815 63.1886C68.8552 57.262 65.5288 51.3524 62.2194 45.4258C59.1633 39.972 56.1071 34.5182 53.051 29.0644C52.8146 28.6591 52.7808 28.6423 52.5444 29.0644C51.3118 31.1919 50.0792 33.3194 48.8466 35.4469C47.9349 33.9272 47.0737 32.3907 46.2295 30.8373C46.4828 30.1112 46.9555 29.5203 47.3439 28.8786C48.1375 27.5954 48.8466 26.2615 49.7415 25.0627C51.2105 23.0872 53.6926 22.9352 55.4824 24.6406C56.276 25.4004 56.7656 26.3628 57.2891 27.3084C60.227 32.5595 63.165 37.8276 66.1029 43.0788C68.5512 47.4857 70.9995 51.8758 73.4647 56.2827C75.322 59.609 77.1794 62.9353 79.0367 66.2617C79.5939 67.2747 79.9991 68.3385 79.8472 69.5204C79.6277 71.0401 78.7159 71.9856 77.3145 72.5428C76.8248 72.7285 76.3183 72.8805 75.7948 72.8805C71.658 72.8805 67.5381 72.8636 63.4014 72.8636Z" fill="#0C856E"/>
</svg>
