<svg width="56" height="56" viewBox="0 0 56 56" fill="none" xmlns="http://www.w3.org/2000/svg">
<path d="M41.4629 26.5V37.8187H47.0726" stroke="#FFE143" stroke-width="2"/>
<path d="M29.6833 27.7188C29.0224 27.7188 27.271 27.7188 25.5526 27.7188C23.6525 27.7188 22.8264 28.9114 22.8264 30.1835C22.8264 31.2966 23.5699 32.7278 25.5526 32.7278C27.2049 32.7278 26.1309 32.7278 26.957 32.7278C28.4441 32.7278 29.6833 33.6024 29.6833 35.1925C29.6833 36.7827 28.3615 37.8163 26.957 37.8163C25.8335 37.8163 23.2443 37.8163 22.3906 37.8163" stroke="#FFE143" stroke-width="2"/>
<path d="M38.6579 27.7188C38.0009 27.7188 36.2599 27.7188 34.5517 27.7188C32.6628 27.7188 31.8415 28.9114 31.8415 30.1835C31.8415 31.2966 32.5807 32.7278 34.5517 32.7278C36.1942 32.7278 35.1265 32.7278 35.9478 32.7278C37.426 32.7278 38.6579 33.6024 38.6579 35.1925C38.6579 36.7827 37.3439 37.8163 35.9478 37.8163C34.8309 37.8163 32.2139 37.8163 31.3652 37.8163" stroke="#FFE143" stroke-width="2"/>
<path d="M29.9936 4.1582H22.6997L5 4.1582L5 51.841L40.3995 51.841L40.3995 44.5277M29.9936 4.1582V14.7381H40.3995M29.9936 4.1582L40.3995 14.7381M40.3995 14.7381V20.7351M17.0592 20.8326H50.9999V44.6252H17.0592V20.8326Z" stroke="#FFE143" stroke-width="2"/>
</svg>
