<svg width="56" height="56" viewBox="0 0 56 56" fill="none" xmlns="http://www.w3.org/2000/svg">
<path d="M31.6514 24.8047L35.3076 28.461L31.6514 32.1172" stroke="#FFE143" stroke-width="1.91456"/>
<path d="M23.3164 24.8047L19.6601 28.461L23.3164 32.1172" stroke="#FFE143" stroke-width="1.91456"/>
<path d="M13.9609 10.0393C12.4741 10.3658 11.5996 10.8172 10.3541 11.6103C10.3541 11.6103 9.31782 10.6246 8.70363 10.0393C7.41384 10.8402 5.47916 12.75 4.77284 13.9513L6.40395 15.553C5.59041 16.8245 4.99321 18.2486 4.66449 19.773H2.40822C2.03971 21.3131 2.03971 23.6849 2.40822 25.3483H4.68477C5.01698 26.8356 5.60514 28.2259 6.40044 29.4703L4.77284 31.1084C5.44844 32.4945 7.6288 34.4967 8.73433 35.1127L10.3619 33.4235C11.6054 34.214 12.4772 34.7266 13.9609 35.0523M40.5226 23.0291C42.0094 23.3556 43.4 23.9398 44.6454 24.7329C44.6454 24.7329 45.6818 23.7472 46.296 23.1619C47.5857 23.9628 49.5204 25.8726 50.2267 27.0739L48.5956 28.6756C49.4092 29.9471 50.0064 31.3712 50.3351 32.8956H52.5914C52.9599 34.4357 52.9599 36.8075 52.5914 38.4708H50.3148C49.9826 39.9582 49.3944 41.3485 48.5991 42.5929L50.2267 44.2309C49.5511 45.6171 47.3708 47.6192 46.2652 48.2353L44.6377 46.5461C43.3942 47.3366 42.0063 47.9191 40.5226 48.2449M40.6301 28.0034C43.6061 29.208 45.7054 32.1256 45.7054 35.5335C45.7054 38.9414 43.6061 41.859 40.6301 43.0636M13.9609 14.8642C10.985 16.0688 8.8857 18.9864 8.8857 22.3943C8.8857 25.8022 10.985 28.7198 13.9609 29.9244M13.9609 3.13477H40.6301V53.9999H13.9609V3.13477Z" stroke="#FFE143" stroke-width="1.91456"/>
<line x1="22.8867" y1="7.23022" x2="31.8123" y2="7.23022" stroke="#FFE143" stroke-width="1.91456"/>
<line x1="29.0808" y1="24.3535" x2="26.715" y2="33.1716" stroke="#FFE143" stroke-width="1.91456"/>
</svg>
