<svg width="56" height="56" viewBox="0 0 56 56" fill="none" xmlns="http://www.w3.org/2000/svg">
<g clip-path="url(#clip0_108_20809)">
<path d="M45.2928 36.7034C40.1133 47.458 32.6076 52.8313 28.6762 54C24.7447 52.8313 17.0778 47.5271 12.0425 36.7034C6.71427 25.2503 6.75536 13.6218 7.16206 8.65491C9.83467 8.65491 14.8075 7.80927 18.6078 6.37596C23.2558 4.62293 26.6814 2.09078 28.6762 1C30.6709 2.09078 34.0795 4.62293 38.7275 6.37596C42.5278 7.80927 47.5006 8.65491 50.1732 8.65491C50.5799 13.6218 50.6961 25.484 45.2928 36.7034Z" stroke="#FFE143" stroke-width="2"/>
<path d="M40.8847 34.3195C37.1417 42.3137 31.5849 46.2685 28.7027 47.1344C25.8204 46.2685 20.0984 42.3859 16.5081 34.3195C12.4528 25.2082 12.632 17.2186 12.9302 13.5386C14.8896 13.5386 18.5353 12.9121 21.3213 11.8502C24.7289 10.5514 27.2403 8.67533 28.7027 7.86719C30.1651 8.67533 32.664 10.5514 36.0715 11.8502C38.8576 12.9121 42.5033 13.5386 44.4626 13.5386C44.7608 17.2186 44.4626 26.6778 40.8847 34.3195Z" stroke="#FFE143" stroke-width="2"/>
<path d="M22 24H35.5V33H22V24Z" stroke="#FFE143" stroke-width="2"/>
<path d="M33 24C33 21.7909 31.2091 20 29 20C26.7909 20 25 21.7909 25 24" stroke="#FFE143" stroke-width="2"/>
</g>
<defs>
<clipPath id="clip0_108_20809">
<rect width="56" height="56" fill="white"/>
</clipPath>
</defs>
</svg>
