<svg width="56" height="56" viewBox="0 0 56 56" fill="none" xmlns="http://www.w3.org/2000/svg">
<g clip-path="url(#clip0_109_20925)">
<path d="M45.4247 37.3773C40.1475 48.3349 32.5001 53.8096 28.4945 55.0003C24.4888 53.8096 16.6772 48.4052 11.5468 37.3773C6.11806 25.708 6.15992 13.8601 6.5743 8.79939C9.29735 8.79939 14.3641 7.93779 18.2361 6.47743C22.9718 4.69131 26.462 2.11136 28.4945 1C30.5269 2.11136 33.9998 4.69131 38.7355 6.47743C42.6075 7.93779 47.6742 8.79939 50.3973 8.79939C50.8116 13.8601 50.93 25.9461 45.4247 37.3773Z" stroke="#FFE143" stroke-width="1.96364"/>
<circle cx="28.4895" cy="26.2825" r="16.3372" stroke="#FFE143" stroke-width="1.96364"/>
<path d="M17.4258 37.7227L40.2131 14.9353" stroke="#FFE143" stroke-width="1.96364"/>
<path d="M22.3226 17.7624C20.7625 17.7624 19.4977 19.0271 19.4977 20.5873C19.4977 22.1474 20.7625 23.4121 22.3226 23.4121C23.8827 23.4121 25.1475 22.1474 25.1475 20.5873C25.1475 19.0271 23.8827 17.7624 22.3226 17.7624ZM22.3226 17.7624V14.9375M25.0533 20.5873H28.1607M25.5888 17.3876L24.2724 18.704M22.3226 23.2238V26.1428M24.2724 22.418L25.6963 23.8419M20.5584 22.418L19.1929 23.7834M16.6729 20.5873H19.7802M19.1392 17.2848L20.2759 18.4215" stroke="#FFE143" stroke-width="1.96364"/>
<path d="M34.4701 30.0026C32.9099 30.0026 31.6452 31.2673 31.6452 32.8275C31.6452 34.3876 32.9099 35.6524 34.4701 35.6524C36.0302 35.6524 37.2949 34.3876 37.2949 32.8275C37.2949 31.2673 36.0302 30.0026 34.4701 30.0026ZM34.4701 30.0026V27.1777M37.2008 32.8275H40.3081M37.7363 29.6278L36.4198 30.9442M34.4701 35.464V38.3831M36.4198 34.6583L37.8438 36.0822M32.7058 34.6583L31.3404 36.0237M28.8203 32.8275H31.9277M31.2867 29.525L32.4234 30.6617" stroke="#FFE143" stroke-width="1.96364"/>
</g>
<defs>
<clipPath id="clip0_109_20925">
<rect width="56" height="56" fill="white"/>
</clipPath>
</defs>
</svg>
