<svg width="56" height="56" viewBox="0 0 56 56" fill="none" xmlns="http://www.w3.org/2000/svg">
<path d="M42.9069 23.741V8.08203H3V34.6866H7.98836V43.7469L16.826 34.6866H22.9535H25.4673" stroke="#FFE143" stroke-width="2"/>
<path d="M42.8898 42.1585L50.0116 49.4597V42.8568V41.8568H51.0116H55V24.3223H26.0486V41.8568H36.0465H42.174H42.5955L42.8898 42.1585Z" stroke="#FFE143" stroke-width="2"/>
<line x1="9.80859" y1="18" x2="35.4705" y2="18" stroke="#FFE143" stroke-width="2"/>
<path d="M9.80859 24.5H25.7295" stroke="#FFE143" stroke-width="2"/>
<circle cx="33" cy="33" r="1" stroke="#FFE143" stroke-width="2"/>
<path d="M41.5 33C41.5 33.5523 41.0523 34 40.5 34C39.9477 34 39.5 33.5523 39.5 33C39.5 32.4477 39.9477 32 40.5 32C41.0523 32 41.5 32.4477 41.5 33Z" stroke="#FFE143" stroke-width="2"/>
<circle cx="48" cy="33" r="1" stroke="#FFE143" stroke-width="2"/>
</svg>
