<svg width="72" height="72" viewBox="0 0 72 72" fill="none" xmlns="http://www.w3.org/2000/svg">
<path d="M20.1875 32.375V27.3125C20.625 27.3125 21.6875 27.3125 22.4375 27.3125C23.375 27.3125 25.25 27.6875 25.25 29.75C25.25 31.4 23.375 32.1875 22.4375 32.375M20.1875 32.375V38C20.875 38 22.625 38 24.125 38C26 38 26.9375 36.6875 26.9375 35.1875C26.9375 33.6875 25.625 32.375 24.125 32.375C23.6404 32.375 23.0376 32.375 22.4375 32.375M20.1875 32.375C20.6719 32.375 21.5517 32.375 22.4375 32.375" stroke="#FFE143" stroke-width="1.92"/>
<path d="M51.125 26.5625L47.0978 33.875M44 39.5L47.0978 33.875M42.6875 26.5625L47.0978 33.875" stroke="#FFE143" stroke-width="1.92"/>
<path d="M31.25 26C31.25 28.4375 31.25 32.45 31.25 34.25C31.25 36.5 32.9375 38.375 35 38.375C37.0625 38.375 38.75 36.5 38.75 34.25C38.75 32.45 38.75 28.4375 38.75 26" stroke="#FFE143" stroke-width="1.92"/>
<path d="M51.0312 48.125H35.9375H1.4375V17H70.4375V48.125H63.7891" stroke="#FFE143" stroke-width="1.92"/>
<path d="M68.5625 51.1384L50.9375 39.125L53.2875 59.4554L58.2225 55.7589L63.1575 65L67.8575 62.2277L62.2175 53.2176L68.5625 51.1384Z" stroke="#FFE143" stroke-width="1.92"/>
</svg>
