<svg width="72" height="72" viewBox="0 0 72 72" fill="none" xmlns="http://www.w3.org/2000/svg">
<path d="M58.9995 13L68.7476 13V59H2.56055V13H35.6541L47.3268 13" stroke="#FFE143" stroke-width="2.09091"/>
<line x1="2" y1="21.9545" x2="51" y2="21.9545" stroke="#FFE143" stroke-width="2.09091"/>
<line x1="57" y1="21.9545" x2="68" y2="21.9545" stroke="#FFE143" stroke-width="2.09091"/>
<line x1="25.3432" y1="22.2656" x2="25.3432" y2="13.6613" stroke="#FFE143" stroke-width="2.09091"/>
<rect x="14.0455" y="37.0455" width="6.90909" height="14.9091" stroke="#FFE143" stroke-width="2.09091"/>
<rect x="26.0455" y="31.0455" width="6.90909" height="20.9091" stroke="#FFE143" stroke-width="2.09091"/>
<rect x="38.0455" y="26.0455" width="6.90909" height="25.9091" stroke="#FFE143" stroke-width="2.09091"/>
<path d="M45.1883 15.9545L53.48 5.68864L61.3768 15.9545H58H56.9545V17V51.9545H50.0455V17V15.9545H49H45.1883Z" stroke="#FFE143" stroke-width="2.09091"/>
<line x1="20" y1="51.9545" x2="58" y2="51.9545" stroke="#FFE143" stroke-width="2.09091"/>
<path d="M11 17.5C11 18.0523 10.5523 18.5 10 18.5C9.44772 18.5 9 18.0523 9 17.5C9 16.9477 9.44772 16.5 10 16.5C10.5523 16.5 11 16.9477 11 17.5Z" fill="#FFE143"/>
<path d="M15 17.5C15 18.0523 14.5523 18.5 14 18.5C13.4477 18.5 13 18.0523 13 17.5C13 16.9477 13.4477 16.5 14 16.5C14.5523 16.5 15 16.9477 15 17.5Z" fill="#FFE143"/>
<path d="M19 17.5C19 18.0523 18.5523 18.5 18 18.5C17.4477 18.5 17 18.0523 17 17.5C17 16.9477 17.4477 16.5 18 16.5C18.5523 16.5 19 16.9477 19 17.5Z" fill="#FFE143"/>
</svg>
