<svg width="72" height="72" viewBox="0 0 72 72" fill="none" xmlns="http://www.w3.org/2000/svg">
<path d="M36.7207 19C24.991 19 11.5856 29.9556 6 35.4333C11.027 41.2889 24.6559 53 36.7207 53C48.7856 53 62.6006 41.2889 68 35.4333C62.042 29.9556 48.4505 19 36.7207 19Z" stroke="#FFE143" stroke-width="1.89189"/>
<path d="M22.6176 58.1174C17.2132 58.1174 11.8088 52.713 11.8088 47.3086C11.8088 52.713 6.40441 58.1174 1 58.1174C6.40441 58.1174 11.8088 62.8463 11.8088 68.9262C11.8088 62.8463 17.2132 58.1174 22.6176 58.1174Z" stroke="#FFE143" stroke-width="1.89189"/>
<path d="M71.0005 14.883C65.596 14.883 60.1916 9.47863 60.1916 4.07422C60.1916 9.47863 54.7872 14.883 49.3828 14.883C54.7872 14.883 60.1916 19.6119 60.1916 25.6919C60.1916 19.6119 65.596 14.883 71.0005 14.883Z" stroke="#FFE143" stroke-width="1.89189"/>
<circle cx="37" cy="36" r="17.0541" stroke="#FFE143" stroke-width="1.89189"/>
<path d="M39 25.5C38.0463 25.2303 38.04 25 37 25C30.9249 25 26 29.9249 26 36C26 42.0751 30.9249 47 37 47C43.0751 47 48 42.0751 48 36C48 35.1401 47.9013 34.3031 47.7147 33.5" stroke="#FFE143" stroke-width="1.89189"/>
<circle cx="44.5" cy="28.5" r="6.55405" stroke="#FFE143" stroke-width="1.89189"/>
</svg>
