<svg width="80" height="80" viewBox="0 0 80 80" fill="none" xmlns="http://www.w3.org/2000/svg">
<path d="M5 36.4613C5 28.483 5 20.5048 5 12.5265C5 11.8653 5.26474 11.4466 5.83832 11.116C7.40466 10.2344 8.97099 9.33081 10.5373 8.4272C12.0375 7.56766 13.5376 6.70813 15.0378 5.84859C16.582 4.96702 18.1263 4.0634 19.6706 3.18182C20.0677 2.93939 20.4869 2.93939 20.906 3.18182C22.6047 4.15156 24.3034 5.14333 26.0021 6.11306C27.7229 7.10483 29.4436 8.09661 31.1644 9.08838C32.4219 9.81568 33.6794 10.543 34.9368 11.2703C35.4001 11.5348 35.5987 11.9535 35.5987 12.5045C35.5987 22.334 35.5987 32.1636 35.5987 41.9932C35.5987 42.5001 35.5987 42.5001 36.0178 42.2576C37.3415 41.5083 38.6652 40.7369 39.9888 39.9876C41.7758 38.9738 43.5406 37.96 45.3276 36.9241C45.9453 36.5715 46.563 36.1968 47.2028 35.8442C47.3793 35.734 47.3793 35.6018 47.3793 35.4254C47.3793 32.4722 47.3793 29.5409 47.3793 26.5876C47.3793 24.538 47.3793 22.5104 47.3793 20.4607C47.3793 19.8877 47.5999 19.491 48.1073 19.2045C50.909 17.5956 53.7108 15.9867 56.4905 14.3778C58.2774 13.342 60.0644 12.3282 61.8513 11.2923C62.4249 10.9617 62.9544 10.9397 63.5279 11.2703C65.0722 12.1959 66.6606 13.0775 68.2049 13.9811C70.1904 15.1272 72.1538 16.2512 74.1393 17.3972C75.2203 18.0143 76.2792 18.6314 77.3602 19.2485C77.7794 19.491 78 19.8656 78 20.3505C78 25.684 78 30.9955 78 36.329C78 36.8139 77.8235 37.1665 77.4044 37.409C76.2792 38.0702 75.1541 38.7093 74.029 39.3705C72.4406 40.2961 70.8302 41.1998 69.2418 42.1254C67.521 43.1172 65.8002 44.109 64.0574 45.0787C63.8589 45.1889 63.8809 45.3211 63.8809 45.4754C63.8809 47.5471 63.8809 49.6408 63.8809 51.7125C63.8809 54.5997 63.8809 57.5089 63.8809 60.3961C63.8809 61.0132 63.6383 61.4319 63.0867 61.7405C60.7262 63.0849 58.3877 64.4513 56.0272 65.7957C53.4681 67.2503 50.9311 68.7049 48.372 70.1815C46.21 71.4378 44.048 72.672 41.8861 73.9282C39.6579 75.2065 37.4077 76.5068 35.1795 77.7851C34.6721 78.0716 34.2088 78.0716 33.7014 77.7851C31.363 76.4187 29.0245 75.0743 26.686 73.7299C24.2372 72.3194 21.7664 70.9088 19.2956 69.4983C16.7365 68.0217 14.1774 66.5671 11.6183 65.0904C9.61076 63.9444 7.62527 62.7983 5.61771 61.6303C5.26474 61.4319 5.04412 61.1013 5.04412 60.6826C5.04412 60.5503 5.04412 60.4401 5.04412 60.3079C5 52.3517 5 44.4175 5 36.4613ZM7.33847 37.1445C7.33847 44.5718 7.33847 52.0211 7.33847 59.4484C7.33847 59.801 7.44878 59.9773 7.73557 60.1316C8.86069 60.7487 9.9858 61.4099 11.0888 62.049C13.2508 63.3053 15.4128 64.5615 17.5748 65.7957C20.1339 67.2503 22.6709 68.7269 25.23 70.1815C27.7891 71.6582 30.3261 73.1128 32.8852 74.5894C33.2381 74.7878 33.2381 74.7878 33.2381 74.3911C33.2381 70.1375 33.2381 65.9059 33.2381 61.6523C33.2381 61.3658 33.1499 61.2115 32.9072 61.0793C31.6718 60.3961 30.4585 59.7128 29.2451 59.0076C27.4802 57.9938 25.6933 57.002 23.9284 55.9882C22.5826 55.2388 21.259 54.4675 19.9133 53.7402C19.3397 53.4316 19.1191 52.9688 19.1191 52.3296C19.1411 50.3902 19.1191 48.4727 19.1191 46.5333C19.1191 38.1804 19.1191 29.8054 19.1191 21.4525C19.1191 21.166 19.0308 21.0117 18.7661 20.8574C17.0233 19.8656 15.3025 18.8518 13.5818 17.8601C11.5742 16.714 9.5887 15.568 7.58114 14.4219C7.3826 14.3117 7.31641 14.3558 7.33847 14.5541C7.33847 14.6423 7.33847 14.7084 7.33847 14.7966C7.33847 22.2679 7.33847 29.7172 7.33847 37.1445ZM35.5766 68.0217C35.5766 70.1815 35.5766 72.3194 35.5766 74.4792C35.5766 74.7878 35.5987 74.8098 35.8634 74.6555C36.3929 74.347 36.9223 74.0384 37.4518 73.7299C39.1946 72.7381 40.9374 71.7243 42.6803 70.7325C44.2687 69.8289 45.8571 68.9033 47.4455 67.9996C49.1662 67.0079 50.887 66.0161 52.6077 65.0243C54.3726 64.0105 56.1375 62.9967 57.9024 61.9829C59.0054 61.3438 60.1306 60.7046 61.2336 60.0655C61.388 59.9773 61.4542 59.8891 61.4542 59.7128C61.4542 55.4152 61.4542 51.1395 61.4542 46.8418C61.4542 46.5774 61.388 46.5774 61.1895 46.6876C58.7186 48.0981 56.2257 49.5306 53.7329 50.9412C51.5488 52.1754 49.3648 53.4096 47.1807 54.6658C45.1952 55.7898 43.2318 56.9138 41.2684 58.0599C39.4814 59.0737 37.7165 60.0875 35.9296 61.1013C35.6869 61.2336 35.5545 61.3878 35.5545 61.7184C35.5987 63.7901 35.5766 65.9059 35.5766 68.0217ZM33.2381 29.0781C33.2381 25.8163 33.2381 22.5544 33.2381 19.2926C33.2381 17.7278 33.2381 16.1851 33.2381 14.6203C33.2381 14.5541 33.2823 14.4439 33.194 14.3999C33.1058 14.3558 33.0396 14.4439 32.9734 14.488C31.2747 15.4578 29.576 16.4275 27.8773 17.4193C25.8477 18.5874 23.8181 19.7554 21.7664 20.9235C21.5017 21.0778 21.4355 21.2321 21.4355 21.4965C21.4355 31.0396 21.4355 40.6047 21.4355 50.1477C21.4355 50.2139 21.4355 50.28 21.4355 50.3241C21.4134 50.5444 21.4796 50.5885 21.6782 50.4563C22.34 50.0596 23.0239 49.6849 23.7078 49.2882C25.4065 48.3185 27.1272 47.3267 28.8259 46.357C30.1937 45.5856 31.5394 44.7922 32.9072 44.0208C33.1499 43.8886 33.2381 43.7563 33.2381 43.4698C33.2161 38.6652 33.2381 33.8827 33.2381 29.0781ZM48.5485 37.7396C48.4823 37.7836 48.3941 37.8057 48.3279 37.8498C47.0925 38.555 45.835 39.2823 44.5996 39.9876C42.4376 41.2218 40.2535 42.478 38.0916 43.7122C36.3487 44.704 34.628 45.7178 32.9072 46.7096C31.1644 47.7234 29.3995 48.7152 27.6567 49.729C26.0683 50.6326 24.502 51.5362 22.9136 52.4619C22.8474 52.506 22.7591 52.506 22.7591 52.5941C22.7591 52.7043 22.8474 52.7263 22.9136 52.7484C24.0387 53.3875 25.1638 54.0046 26.2889 54.6438C28.8039 56.0543 31.2968 57.4648 33.7897 58.9194C34.2309 59.1839 34.5397 59.1839 35.003 58.9194C36.7679 57.8836 38.5549 56.8918 40.3418 55.8559C42.7023 54.5115 45.0629 53.1671 47.4234 51.8227C49.5854 50.5885 51.7474 49.3764 53.9093 48.1422C55.939 46.9961 57.9686 45.828 59.9982 44.6599C60.0864 44.6159 60.2188 44.6159 60.2188 44.4836C60.2188 44.3734 60.0864 44.3734 60.0202 44.3293C58.3436 43.3596 56.6449 42.3899 54.9683 41.4201C52.8945 40.23 50.8208 39.0399 48.7691 37.8498C48.6809 37.8057 48.6147 37.7836 48.5485 37.7396ZM8.52977 12.2841C8.86068 12.4824 9.14748 12.6588 9.45633 12.8351C11.4639 13.9811 13.4714 15.1492 15.479 16.2953C17.0012 17.1768 18.5234 18.0364 20.0236 18.9179C20.2001 19.0281 20.3545 19.0281 20.531 18.9179C21.2149 18.5212 21.8988 18.1245 22.5827 17.7278C24.7667 16.4716 26.9287 15.2153 29.1127 13.9811C30.0172 13.4522 30.9217 12.9453 31.8262 12.4163C31.9365 12.3502 32.091 12.3061 31.8703 12.1739C31.2747 11.8433 30.6791 11.4907 30.0834 11.138C28.3406 10.1463 26.6198 9.1545 24.877 8.16273C23.3769 7.30319 21.8988 6.44365 20.3986 5.58412C20.2883 5.518 20.2221 5.54004 20.1118 5.60616C18.4793 6.53181 16.8688 7.47951 15.2363 8.40516C13.8906 9.17654 12.5449 9.94791 11.1771 10.7413C10.3388 11.2482 9.45633 11.7331 8.52977 12.2841ZM50.909 20.2623C51.0855 20.3725 51.1958 20.4607 51.3282 20.5268C52.9166 21.4304 54.4829 22.334 56.0713 23.2377C58.0789 24.3837 60.0864 25.5298 62.094 26.7199C62.5131 26.9623 62.7999 26.9844 63.2412 26.7199C64.9399 25.7061 66.6827 24.7363 68.4034 23.7446C70.0139 22.8189 71.6464 21.8933 73.2569 20.9456C73.6319 20.7252 74.029 20.5489 74.4041 20.2403C73.8525 19.9318 73.3231 19.6232 72.8157 19.3147C70.9846 18.2568 69.1535 17.1989 67.3224 16.163C65.8664 15.3255 64.4104 14.488 62.9544 13.6505C62.7779 13.5624 62.6455 13.5183 62.447 13.6285C60.7483 14.6203 59.0716 15.59 57.3729 16.5597C56.0272 17.3311 54.6815 18.1025 53.3578 18.8739C52.5416 19.3147 51.7474 19.7775 50.909 20.2623ZM63.8368 35.734C63.8368 37.8718 63.8368 40.0096 63.8368 42.1254C63.8368 42.2797 63.7706 42.5001 64.0795 42.3238C66.2415 41.0675 68.4034 39.8333 70.5875 38.5991C72.1759 37.6735 73.7863 36.7698 75.3747 35.8442C75.5512 35.756 75.6174 35.6238 75.6174 35.4254C75.6174 31.1498 75.6174 26.8962 75.6174 22.6206C75.6174 22.312 75.5071 22.3561 75.3306 22.4663C74.8453 22.7528 74.3599 23.0393 73.8746 23.3258C72.3744 24.2074 70.8522 25.0669 69.3521 25.9265C67.6092 26.9403 65.8444 27.932 64.1015 28.9238C63.9251 29.034 63.8589 29.1663 63.8589 29.3646C63.8368 31.4804 63.8368 33.6182 63.8368 35.734ZM61.4763 35.734C61.4763 33.6182 61.4763 31.4804 61.4763 29.3646C61.4763 29.1442 61.4101 29.012 61.2115 28.9018C60.3732 28.439 59.5349 27.932 58.6966 27.4692C55.8066 25.8163 52.9166 24.1413 50.0266 22.4883C49.7177 22.312 49.6957 22.334 49.6957 22.6646C49.6957 26.8962 49.6957 31.1278 49.6957 35.3814C49.6957 35.6238 49.7839 35.734 49.9825 35.8662C51.9459 36.9902 53.9093 38.1142 55.8728 39.2382C57.6377 40.2521 59.4025 41.2659 61.1674 42.2797C61.4542 42.434 61.4542 42.3458 61.4542 42.1034C61.4763 39.9876 61.4763 37.8498 61.4763 35.734Z" fill="#FF2B24"/>
</svg>
