<svg width="56" height="56" viewBox="0 0 56 56" fill="none" xmlns="http://www.w3.org/2000/svg">
<path d="M25.148 43.1732V30.0509L21.8674 26.7703V20.363L24.3791 17.8513H26.737V24.1049H30.0688V17.8513H32.5805L34.8872 20.1579V26.6678L31.5553 29.9996V43.1732M44.2163 28.0005C44.2163 36.6632 37.1938 43.6858 28.5311 43.6858C19.8683 43.6858 12.8458 36.6632 12.8458 28.0005C12.8458 19.3378 19.8683 12.3153 28.5311 12.3153C37.1938 12.3153 44.2163 19.3378 44.2163 28.0005ZM16.8771 9.58262C18.9791 8.24689 21.3261 7.26279 23.8354 6.71301V2.83803C24.8201 2.6305 27.1525 2.37099 28.5 2.37109C29.8475 2.3712 32.1799 2.6305 33.1646 2.83803V6.71301C35.6739 7.26279 38.0209 8.24689 40.1229 9.58262C40.1229 9.58262 41.8719 7.92241 42.9085 6.93666C45.0854 8.28558 48.3506 11.5022 49.5427 13.5256L46.7898 16.2234C48.1628 18.3651 49.1707 20.7637 49.7255 23.3312H53.5335C54.1555 25.9253 54.1555 29.9202 53.5335 32.7217H49.6913C49.1306 35.2269 48.138 37.5687 46.7957 39.6646L49.5427 42.4236C48.4024 44.7583 44.7226 48.1305 42.8567 49.1682L40.1097 46.3231C38.0111 47.6545 35.6687 48.6357 33.1646 49.1843V53.163C31.6098 53.63 28.5 53.63 28.5 53.63C28.5 53.63 25.3902 53.63 23.8354 53.163V49.1843C21.3313 48.6357 18.9889 47.6545 16.8903 46.3231L14.1433 49.1682C12.2774 48.1305 8.59756 44.7583 7.45732 42.4236L10.2043 39.6646C8.86203 37.5687 7.86937 35.2269 7.30869 32.7217H3.46647C2.84451 29.9202 2.84451 25.9253 3.46647 23.3312H7.27446C7.82926 20.7637 8.83717 18.3651 10.2102 16.2234L7.45733 13.5256C8.6494 11.5022 11.9146 8.28558 14.0915 6.93666C15.1281 7.92241 16.8771 9.58262 16.8771 9.58262Z" stroke="#FFE143" stroke-width="2"/>
</svg>
