<svg width="56" height="56" viewBox="0 0 56 56" fill="none" xmlns="http://www.w3.org/2000/svg">
<path d="M30.5935 31.5169L21.8125 33.9888M16.1685 20.0009V29.4382M2.9265 42.3596L10.8425 37.8652M21.8989 35C21.8989 38.2579 19.2579 40.8989 16 40.8989C12.7421 40.8989 10.1011 38.2579 10.1011 35C10.1011 31.7421 12.7421 29.1011 16 29.1011C19.2579 29.1011 21.8989 31.7421 21.8989 35ZM31 35C31 43.2843 24.2843 50 16 50C7.71573 50 1 43.2843 1 35C1 26.7157 7.71573 20 16 20C24.2843 20 31 26.7157 31 35Z" stroke="#FFE143" stroke-width="2"/>
<path d="M30.9436 35.9364H38.885H48.7038V22.5133V15.056M9.42871 20.7305V9.09013H29.0663H42.8001M45.2433 13.0869L37.5996 20.7305M33.5416 20.2764L30.9436 17.6784M22.8518 21.7675L26.9588 17.6605M54.9999 9.02798C54.9999 12.3571 52.3011 15.056 48.972 15.056C45.6428 15.056 42.944 12.3571 42.944 9.02798C42.944 5.69882 45.6428 3 48.972 3C52.3011 3 54.9999 5.69882 54.9999 9.02798ZM32.0066 15.3666C32.0066 17.0484 30.6433 18.4117 28.9615 18.4117C27.2798 18.4117 25.9165 17.0484 25.9165 15.3666C25.9165 13.6849 27.2798 12.3216 28.9615 12.3216C30.6433 12.3216 32.0066 13.6849 32.0066 15.3666ZM38.7182 22.451C38.7182 24.1328 37.3548 25.4961 35.6731 25.4961C33.9914 25.4961 32.628 24.1328 32.628 22.451C32.628 20.7693 33.9914 19.406 35.6731 19.406C37.3548 19.406 38.7182 20.7693 38.7182 22.451Z" stroke="#FFE143" stroke-width="2"/>
</svg>
