<svg width="56" height="56" viewBox="0 0 56 56" fill="none" xmlns="http://www.w3.org/2000/svg">
<path d="M20.937 35.5977C18.9653 33.7254 17.7358 31.0776 17.7358 28.1424C17.7358 22.4679 22.3312 17.8679 28 17.8679C33.6688 17.8679 38.2642 22.4679 38.2642 28.1424C38.2642 31.0776 37.0346 33.7254 35.063 35.5977M29.3999 26.6674L36.6023 19.4596M28 53.2694C28 53.2694 24.9512 53.2694 23.4268 52.8117V48.9109C20.9719 48.373 18.6754 47.4111 16.6179 46.1058L13.9248 48.8951C12.0955 47.8778 8.4878 44.5717 7.36992 42.2828L10.063 39.5779C8.74709 37.523 7.77389 35.2272 7.22421 32.7712H3.45732C2.84756 30.0245 2.84756 26.108 3.45732 23.5648H7.19065C7.73457 21.0476 8.72272 18.696 10.0688 16.5964L7.36993 13.9514C8.53863 11.9677 11.7399 8.81414 13.874 7.49167C14.8903 8.45809 16.605 10.0857 16.605 10.0857C18.6658 8.77621 20.9667 7.81141 23.4268 7.27241C23.4268 5.86402 23.4268 4.84674 23.4268 3.4734C24.3923 3.26995 26.6789 3.01553 28 3.01563C29.3211 3.01572 31.6077 3.26995 32.5732 3.4734V7.27241C35.0333 7.81141 37.3342 8.77621 39.395 10.0857C39.395 10.0857 41.1097 8.45809 42.126 7.49167C44.2602 8.81414 47.4614 11.9677 48.6301 13.9514L45.9312 16.5964C47.2773 18.696 48.2654 21.0476 48.8094 23.5648H52.5427C53.1524 26.108 53.1524 30.0245 52.5427 32.7712H48.7758C48.2261 35.2272 47.2529 37.523 45.937 39.5779L48.6301 42.2828C47.5122 44.5717 43.9045 47.8778 42.0752 48.8951L39.3821 46.1058C37.3246 47.4111 35.0281 48.373 32.5732 48.9109V52.8117C31.0488 53.2694 28 53.2694 28 53.2694ZM43.6504 28.1424C43.6504 36.7946 36.6435 43.8086 28 43.8086C19.3565 43.8086 12.3496 36.7946 12.3496 28.1424C12.3496 19.4902 19.3565 12.4763 28 12.4763C36.6435 12.4763 43.6504 19.4902 43.6504 28.1424ZM30.0325 28.1424C30.0325 29.2661 29.1225 30.177 28 30.177C26.8775 30.177 25.9675 29.2661 25.9675 28.1424C25.9675 27.0188 26.8775 26.1079 28 26.1079C29.1225 26.1079 30.0325 27.0188 30.0325 28.1424Z" stroke="#FFE143" stroke-width="2"/>
</svg>
