<svg width="56" height="56" viewBox="0 0 56 56" fill="none" xmlns="http://www.w3.org/2000/svg">
<path d="M19.6719 39.5287H2.54785V5H52.3555V39.5287H35.369" stroke="#FFE143" stroke-width="1.90268"/>
<circle cx="27.2818" cy="28.7837" r="13.3187" stroke="#FFE143" stroke-width="1.90268"/>
<line x1="2.54785" y1="11.1268" x2="52.3555" y2="11.1268" stroke="#FFE143" stroke-width="1.90268"/>
<line x1="19.4689" y1="5" x2="19.4689" y2="12.0784" stroke="#FFE143" stroke-width="1.90268"/>
<path d="M24 42V51.3187C24 52.3736 25.0213 54 27.5 54C30.5984 54 31 52.0659 31 51.3187C31 50.7209 31 44.8571 31 42" stroke="#FFE143" stroke-width="1.90268"/>
<path d="M21.5742 29.4541L26.2007 33.5406L34.893 24.9785" stroke="#FFE143" stroke-width="1.90268"/>
<path d="M20.1474 17.6895H7.81348V28.566H12.1943H13.4881M34.8932 17.6895H47.0899V28.566H40.6012" stroke="#FFE143" stroke-width="1.90268"/>
<path d="M6.82812 32.0156L14.4388 32.0156" stroke="#FFE143" stroke-width="1.90268"/>
<path d="M39.6504 32.0156L47.7368 32.0156" stroke="#FFE143" stroke-width="1.90268"/>
</svg>
