<svg width="80" height="80" viewBox="0 0 80 80" fill="none" xmlns="http://www.w3.org/2000/svg">
<path d="M1.0926 12.0228C5.48357 12.0228 9.8973 12.0228 14.2883 12.0228C15.0391 12.0228 15.7671 12.0228 16.5179 12.0228C16.6317 12.1365 16.7454 12.2503 16.8364 12.3868C18.5882 15.4127 20.3401 18.4386 22.0919 21.4645C28.0961 31.8893 34.499 42.0773 40.5 52.5C40.6365 52.7275 40.3611 52.7928 40.4976 52.5653C40.5886 52.4061 40.6796 52.2468 40.7934 52.0875C42.2949 49.4939 43.7965 46.9003 45.2981 44.3066C46.5494 42.1453 47.8007 39.9839 49.0521 37.8226C50.8721 34.6829 52.715 31.5205 54.5351 28.3808C55.8091 26.174 57.0832 23.9671 58.3573 21.7602C59.8361 19.1894 61.3377 16.6185 62.8393 14.0476C63.2488 13.3651 63.59 12.637 64.0906 12C66.1609 12 68.254 12 70.3244 12C73.3958 12 76.4672 12 79.5159 12C79.6296 12.1365 40.5204 79.844 40.3156 79.844C40.0881 79.8667 0.887836 12.273 1.0926 12.0228Z" fill="#40B883"/>
<path d="M64.0002 12C63.5057 12.6183 63.1685 13.3739 62.7639 14.0609C61.2804 16.6484 59.8194 19.236 58.3359 21.8235C57.0772 24.0447 55.8185 26.2658 54.5597 28.487C52.7615 31.647 50.9409 34.8299 49.1427 37.9899C47.9065 40.1653 46.6702 42.3407 45.434 44.5161C43.9505 47.1265 42.4669 49.737 40.9834 52.3474C40.9424 52.4205 40.581 53.0823 40.5 53C33.5667 40.7322 16.2302 12.0229 16.5002 12.0229C16.7699 12.0229 17.5621 12.0229 17.8318 12.0229C22.2149 12.0229 26.598 12.0229 30.981 12.0229C31.4081 12.0229 31.6554 12.1603 31.8577 12.5496C33.0714 14.7249 34.3302 16.9003 35.5664 19.0757C36.7577 21.1824 37.949 23.3119 39.1403 25.4186C39.5 26.0598 39.8596 26.678 40.2417 27.3192C40.444 27.6398 40.5564 27.6398 40.7362 27.2963C41.4555 26.0369 42.1747 24.7545 42.9165 23.4951C43.9729 21.6403 45.0294 19.7855 46.0858 17.9307C47.0973 16.1447 48.1087 14.3357 49.1202 12.5496C49.3225 12.1832 49.5698 12.0458 49.9744 12.0458C54.3574 12.0687 58.7405 12.0458 63.1236 12.0458C63.4382 12 63.708 12 64.0002 12Z" fill="#33495D"/>
</svg>
